<svg width="60" height="80" viewBox="0 0 60 80" fill="none" xmlns="http://www.w3.org/2000/svg">
<path d="M60 80H0V0H60V80ZM0.959961 79.0244H59.04V0.975586H0.959961V79.0244ZM35.7959 42C36.1692 42 36.5334 42.0638 36.8867 42.1904C37.2398 42.3104 37.5633 42.4772 37.8564 42.6904C38.1496 42.9037 38.3865 43.1467 38.5664 43.4199L37.8965 43.8799C37.7632 43.6665 37.5831 43.4762 37.3564 43.3096C37.1299 43.1363 36.8797 43.0035 36.6064 42.9102C36.3398 42.8168 36.0692 42.7695 35.7959 42.7695C35.2562 42.7696 34.7763 42.8932 34.3564 43.1396C33.9365 43.3796 33.6062 43.7131 33.3662 44.1396C33.1262 44.5663 33.0059 45.0633 33.0059 45.6299C33.0059 46.1765 33.1232 46.6663 33.3564 47.0996C33.5964 47.5263 33.9267 47.8637 34.3467 48.1104C34.7731 48.3568 35.2562 48.4804 35.7959 48.4805C36.2491 48.4805 36.6495 48.3868 36.9961 48.2002C37.3494 48.0069 37.6262 47.7434 37.8262 47.4102C38.02 47.0806 38.1191 46.7038 38.125 46.2803H36.4062V45.5498H38.9365V46.21H38.9355C38.9313 46.8108 38.7984 47.3375 38.5361 47.79C38.2695 48.2433 37.8991 48.6004 37.4258 48.8604C36.9526 49.1135 36.409 49.2402 35.7959 49.2402C35.0828 49.2402 34.4528 49.0868 33.9062 48.7803C33.3596 48.4669 32.9295 48.04 32.6162 47.5C32.3096 46.9533 32.1562 46.3299 32.1562 45.6299C32.1563 44.9166 32.3096 44.29 32.6162 43.75C32.9295 43.2033 33.3596 42.7764 33.9062 42.4697C34.4528 42.1565 35.0828 42.0001 35.7959 42ZM15.7803 49.1201H14.9307V42.1201H15.7803V49.1201ZM20.9453 45.7002L23.3652 42.1201H24.2354V49.1201H23.3955V43.4805L20.9453 47.1299L18.4951 43.5V49.1201H17.6455V42.1201H18.5254L20.9453 45.7002ZM31.8428 49.1201H30.9531L30.1543 47.1299H26.9619L26.1631 49.1201H25.2627L28.1123 42.1201H28.9932L31.8428 49.1201ZM44.3633 42.8896H41.0732V45.1504H44.0732V45.9102H41.0732V48.3506H44.3838V49.1201H40.2236V42.1201H44.3633V42.8896ZM27.2666 46.3701H29.8486L28.5576 43.1533L27.2666 46.3701ZM21.6943 30C22.3677 30 22.9613 30.1564 23.4746 30.4697C23.9946 30.7764 24.3979 31.2033 24.6846 31.75C24.9712 32.29 25.1143 32.9135 25.1143 33.6201C25.1142 34.3267 24.9712 34.9534 24.6846 35.5C24.3979 36.0467 23.9977 36.4736 23.4844 36.7803C22.9778 37.0868 22.3911 37.2402 21.7246 37.2402C21.0514 37.2402 20.4545 37.0868 19.9346 36.7803C19.4146 36.4736 19.0082 36.0466 18.7148 35.5C18.4215 34.9534 18.2744 34.3267 18.2744 33.6201C18.2744 32.9069 18.4175 32.2802 18.7041 31.7402C18.9974 31.1937 19.4008 30.7666 19.9141 30.46C20.4274 30.1533 21.021 30 21.6943 30ZM32.1484 30C32.5218 30 32.8859 30.0638 33.2393 30.1904C33.5924 30.3104 33.9158 30.4772 34.209 30.6904C34.5022 30.9037 34.739 31.1467 34.9189 31.4199L34.249 31.8799C34.1157 31.6665 33.9357 31.4762 33.709 31.3096C33.4824 31.1363 33.2322 31.0035 32.959 30.9102C32.6923 30.8168 32.4218 30.7695 32.1484 30.7695C31.6087 30.7696 31.1288 30.8932 30.709 31.1396C30.2891 31.3796 29.9587 31.7131 29.7188 32.1396C29.4788 32.5663 29.3584 33.0633 29.3584 33.6299C29.3584 34.1765 29.4757 34.6663 29.709 35.0996C29.949 35.5263 30.2792 35.8637 30.6992 36.1104C31.1257 36.3568 31.6088 36.4804 32.1484 36.4805C32.6017 36.4805 33.002 36.3868 33.3486 36.2002C33.7019 36.0069 33.9787 35.7434 34.1787 35.4102C34.3726 35.0806 34.4716 34.7038 34.4775 34.2803H32.7588V33.5498H35.2891V34.21H35.2881C35.2838 34.8108 35.151 35.3375 34.8887 35.79C34.622 36.2433 34.2516 36.6004 33.7783 36.8604C33.3051 37.1135 32.7616 37.2402 32.1484 37.2402C31.4353 37.2402 30.8053 37.0868 30.2588 36.7803C29.7121 36.4669 29.2821 36.04 28.9688 35.5C28.6621 34.9533 28.5088 34.3299 28.5088 33.6299C28.5088 32.9166 28.6621 32.29 28.9688 31.75C29.2821 31.2033 29.7121 30.7764 30.2588 30.4697C30.8053 30.1565 31.4353 30.0001 32.1484 30ZM16.0303 35.7402V30.1201H16.8799V37.1201H16.0303L11.8496 31.4697V37.1201H11V30.1201H11.8604L16.0303 35.7402ZM37.2598 37.1201H36.4102V30.1201H37.2598V37.1201ZM43.2852 30.8896H39.9746V33.2803H42.8945V34.0498H39.9746V37.1201H39.125V30.1201H43.2852V30.8896ZM49.0352 30.8896H46.8057V37.1201H45.9658V30.8896H43.7354V30.1201H49.0352V30.8896ZM21.6943 30.7695C21.1944 30.7695 20.7509 30.893 20.3643 31.1396C19.9776 31.3796 19.6741 31.7171 19.4541 32.1504C19.2343 32.577 19.124 33.067 19.124 33.6201C19.124 34.1799 19.2343 34.6731 19.4541 35.0996C19.6741 35.5262 19.9807 35.8637 20.374 36.1104C20.7674 36.3504 21.2179 36.4697 21.7246 36.4697C22.2243 36.4697 22.6641 36.3501 23.0439 36.1104C23.4239 35.8637 23.7212 35.5263 23.9346 35.0996C24.1544 34.6731 24.2646 34.1799 24.2646 33.6201C24.2646 33.0669 24.1544 32.577 23.9346 32.1504C23.7146 31.7171 23.4111 31.3796 23.0244 31.1396C22.6445 30.8931 22.2009 30.7695 21.6943 30.7695Z" fill="black"/>
</svg>
